<?xml version="1.0" encoding="utf-8"?>
<!-- Generator: Adobe Illustrator 26.1.0, SVG Export Plug-In . SVG Version: 6.00 Build 0)  -->
<svg version="1.1" id="Layer_1" xmlns="http://www.w3.org/2000/svg" xmlns:xlink="http://www.w3.org/1999/xlink" x="0px" y="0px"
	 viewBox="0 0 640 640" style="enable-background:new 0 0 640 640;" xml:space="preserve">
<style type="text/css">
	.st0{fill:#FFFEFE;}
</style>
<path class="st0" d="M320,352c-17.7,0-32-14.3-32-32s14.3-32,32-32s32,14.3,32,32S337.7,352,320,352z M224,320c0,53,43,96,96,96
	s96-43,96-96s-43-96-96-96S224,267,224,320z"/>
<path class="st0" d="M168,304c0-32.4,16.3-66.6,42.8-93.2S271.6,168,304,168c13.3,0,24-10.7,24-24s-10.7-24-24-24
	c-47.9,0-93.7,23.5-127.1,56.9S120,256.1,120,304c0,13.3,10.7,24,24,24S168,317.3,168,304z"/>
<path class="st0" d="M47.1,320C47.1,169.3,169.3,47.1,320,47.1S592.9,169.3,592.9,320S470.7,592.9,320,592.9S47.1,470.7,47.1,320z
	 M320,544.5c124,0,224.5-100.5,224.5-224.5S444,95.5,320,95.5S95.5,196,95.5,320S196,544.5,320,544.5z"/>
</svg>
