<?xml version="1.0" encoding="utf-8"?>
<!-- Generator: Adobe Illustrator 26.1.0, SVG Export Plug-In . SVG Version: 6.00 Build 0)  -->
<svg version="1.1" id="Layer_1" xmlns="http://www.w3.org/2000/svg" xmlns:xlink="http://www.w3.org/1999/xlink" x="0px" y="0px"
	 viewBox="0 0 640 640" style="enable-background:new 0 0 640 640;" xml:space="preserve">
<style type="text/css">
	.st0{fill:#FFFFFF;}
</style>
<path class="st0" d="M64,128c0-17.7,14.3-32,32-32h448c17.7,0,32,14.3,32,32v32c0,17.7-14.3,32-32,32H96c-17.7,0-32-14.3-32-32V128z
	 M96,240h448v240c0,35.3-28.7,64-64,64H160c-35.3,0-64-28.7-64-64V240z M248,304c-13.3,0-24,10.7-24,24s10.7,24,24,24h144
	c13.3,0,24-10.7,24-24s-10.7-24-24-24H248z"/>
</svg>
