<?xml version="1.0" encoding="utf-8"?>
<!-- Generator: Adobe Illustrator 26.1.0, SVG Export Plug-In . SVG Version: 6.00 Build 0)  -->
<svg version="1.1" id="Layer_1" xmlns="http://www.w3.org/2000/svg" xmlns:xlink="http://www.w3.org/1999/xlink" x="0px" y="0px"
	 viewBox="0 0 640 640" style="enable-background:new 0 0 640 640;" xml:space="preserve">
<style type="text/css">
	.st0{fill:#FFFFFF;}
</style>
<path class="st0" d="M320,112c114.9,0,208,93.1,208,208s-93.1,208-208,208s-208-93.1-208-208S205.1,112,320,112z M320,576
	c141.4,0,256-114.6,256-256S461.4,64,320,64S64,178.6,64,320S178.6,576,320,576z M231,231c-9.4,9.4-9.4,24.6,0,33.9l55,55l-55,55
	c-9.4,9.4-9.4,24.6,0,33.9c9.4,9.3,24.6,9.4,33.9,0l55-55l55,55c9.4,9.4,24.6,9.4,33.9,0c9.3-9.4,9.4-24.6,0-33.9l-55-55l55-55
	c9.4-9.4,9.4-24.6,0-33.9c-9.4-9.3-24.6-9.4-33.9,0l-55,55l-55-55C255.5,221.6,240.3,221.6,231,231z"/>
</svg>
