<?xml version="1.0" encoding="utf-8"?>
<!-- Generator: Adobe Illustrator 26.1.0, SVG Export Plug-In . SVG Version: 6.00 Build 0)  -->
<svg version="1.1" id="Layer_1" xmlns="http://www.w3.org/2000/svg" xmlns:xlink="http://www.w3.org/1999/xlink" x="0px" y="0px"
	 viewBox="0 0 640 640" style="enable-background:new 0 0 640 640;" xml:space="preserve">
<style type="text/css">
	.st0{fill:#FFFFFF;}
</style>
<path class="st0" d="M320,576C178.6,576,64,461.4,64,320S178.6,64,320,64s256,114.6,256,256S461.4,576,320,576z M320,112
	c-114.9,0-208,93.1-208,208s93.1,208,208,208s208-93.1,208-208S434.9,112,320,112z M390.7,233.9c7.8-10.7,22.8-13.1,33.5-5.3
	c10.7,7.8,13.1,22.8,5.3,33.5l-122.1,168c-4.1,5.7-10.5,9.3-17.5,9.8s-13.9-2-18.8-6.9l-55.9-55.9c-9.4-9.4-9.4-24.6,0-33.9
	c9.4-9.3,24.6-9.4,33.9,0l36,36L390.7,234V233.9z"/>
</svg>
