<?xml version="1.0" encoding="utf-8"?>
<!-- Generator: Adobe Illustrator 26.1.0, SVG Export Plug-In . SVG Version: 6.00 Build 0)  -->
<svg version="1.1" id="Layer_1" xmlns="http://www.w3.org/2000/svg" xmlns:xlink="http://www.w3.org/1999/xlink" x="0px" y="0px"
	 viewBox="0 0 640 640" style="enable-background:new 0 0 640 640;" xml:space="preserve">
<style type="text/css">
	.st0{fill:#FFFFFF;}
</style>
<path class="st0" d="M544,269.8c-14.8,9.8-31.8,17.7-49.5,24C447.5,310.6,385.8,320,320,320s-127.6-9.5-174.5-26.2
	c-17.6-6.3-34.7-14.2-49.5-24V352c0,44.2,100.3,80,224,80s224-35.8,224-80V269.8z M544,192v-48c0-44.2-100.3-80-224-80
	S96,99.8,96,144v48c0,44.2,100.3,80,224,80S544,236.2,544,192z M494.5,453.8C447.6,470.5,385.9,480,320,480s-127.6-9.5-174.5-26.2
	c-17.6-6.3-34.7-14.2-49.5-24V496c0,44.2,100.3,80,224,80s224-35.8,224-80v-66.2C529.2,439.6,512.2,447.5,494.5,453.8z"/>
</svg>
