<?xml version="1.0" encoding="utf-8"?>
<!-- Generator: Adobe Illustrator 26.1.0, SVG Export Plug-In . SVG Version: 6.00 Build 0)  -->
<svg version="1.1" id="Layer_1" xmlns="http://www.w3.org/2000/svg" xmlns:xlink="http://www.w3.org/1999/xlink" x="0px" y="0px"
	 viewBox="0 0 640 640" style="enable-background:new 0 0 640 640;" xml:space="preserve">
<style type="text/css">
	.st0{fill:#FFFFFF;}
</style>
<path class="st0" d="M96,320c0-30.9,25.1-56,56-56s56,25.1,56,56s-25.1,56-56,56S96,350.9,96,320z M264,320c0-30.9,25.1-56,56-56
	s56,25.1,56,56s-25.1,56-56,56S264,350.9,264,320z M488,264c30.9,0,56,25.1,56,56s-25.1,56-56,56s-56-25.1-56-56S457.1,264,488,264z
	"/>
</svg>
