<?xml version="1.0" encoding="utf-8"?>
<!-- Generator: Adobe Illustrator 26.1.0, SVG Export Plug-In . SVG Version: 6.00 Build 0)  -->
<svg version="1.1" id="Layer_1" xmlns="http://www.w3.org/2000/svg" xmlns:xlink="http://www.w3.org/1999/xlink" x="0px" y="0px"
	 viewBox="0 0 640 640" style="enable-background:new 0 0 640 640;" xml:space="preserve">
<style type="text/css">
	.st0{fill:#FFFFFF;}
</style>
<path class="st0" d="M160,96c-35.3,0-64,28.7-64,64v320c0,35.3,28.7,64,64,64h320c35.3,0,64-28.7,64-64V237.3
	c0-17-6.7-33.3-18.7-45.3L448,114.7c-12-12-28.3-18.7-45.3-18.7H160z M192,192c0-17.7,14.3-32,32-32h160c17.7,0,32,14.3,32,32v64
	c0,17.7-14.3,32-32,32H224c-17.7,0-32-14.3-32-32V192z M320,352c35.3,0,64,28.7,64,64s-28.7,64-64,64s-64-28.7-64-64
	S284.7,352,320,352z"/>
</svg>
