<?xml version="1.0" encoding="utf-8"?>
<!-- Generator: Adobe Illustrator 26.1.0, SVG Export Plug-In . SVG Version: 6.00 Build 0)  -->
<svg version="1.1" id="Layer_1" xmlns="http://www.w3.org/2000/svg" xmlns:xlink="http://www.w3.org/1999/xlink" x="0px" y="0px"
	 viewBox="0 0 800 800" style="enable-background:new 0 0 800 800;" xml:space="preserve">
<style type="text/css">
	.st0{fill-rule:evenodd;clip-rule:evenodd;fill:#FFFFFF;}
</style>
<path class="st0" d="M372,59.9c18.3-5.3,37.7-5.3,55.9,0c12.7,3.7,23.2,10.2,33,17.6c9.2,7,19.6,16.2,31.6,26.9l175.6,156.1
	c0.9,0.8,1.9,1.7,2.8,2.5c17.4,15.4,30.5,27.1,40.1,41.6c8.1,12.2,14.2,25.7,17.9,39.9c4.4,16.8,4.4,34.3,4.4,57.6
	c0,1.2,0,2.5,0,3.7v168.1c0,27.3,0,49.8-1.5,68.1c-1.6,19-5,36.5-13.5,52.9c-12.7,24.4-32.5,44.2-56.9,56.9
	c-16.4,8.5-33.9,11.9-52.9,13.5c-18.3,1.5-40.8,1.5-68.1,1.5h-13.6c-0.3,0-0.5,0-0.8,0c-4,0-8.9,0-13.1-0.3
	c-4.9-0.4-12-1.5-19.3-5.3c-9.1-4.7-16.6-12.2-21.3-21.3c-3.8-7.4-4.9-14.4-5.3-19.3c-0.4-4.2-0.4-9.1-0.4-13.1l0-107.3
	c0-36.8-29.9-66.7-66.7-66.7c-36.8,0-66.7,29.8-66.7,66.7l0,107.3c0,4,0,8.9-0.3,13.1c-0.4,4.9-1.5,12-5.3,19.3
	c-4.7,9.1-12.2,16.6-21.3,21.3c-7.4,3.8-14.4,4.9-19.3,5.3c-4.2,0.4-9.1,0.3-13.1,0.3c-0.3,0-0.5,0-0.8,0h-13.6
	c-27.3,0-49.8,0-68.1-1.5c-19-1.6-36.5-5-52.9-13.5c-24.4-12.7-44.2-32.5-56.9-56.9c-8.5-16.4-11.9-33.9-13.5-52.9
	c-1.5-18.3-1.5-40.9-1.5-68.1V405.6c0-1.3,0-2.5,0-3.7c0-23.3,0-40.8,4.4-57.6c3.7-14.2,9.8-27.7,17.9-39.9
	c9.6-14.4,22.7-26.1,40.1-41.6c0.9-0.8,1.9-1.6,2.8-2.5l175.6-156.1c12-10.6,22.4-19.9,31.6-26.9C348.9,70,359.4,63.5,372,59.9z"/>
</svg>
