<?xml version="1.0" encoding="utf-8"?>
<!-- Generator: Adobe Illustrator 26.1.0, SVG Export Plug-In . SVG Version: 6.00 Build 0)  -->
<svg version="1.1" id="Layer_1" xmlns="http://www.w3.org/2000/svg" xmlns:xlink="http://www.w3.org/1999/xlink" x="0px" y="0px"
	 viewBox="0 0 640 640" style="enable-background:new 0 0 640 640;" xml:space="preserve">
<style type="text/css">
	.st0{fill:#FFFFFF;}
</style>
<path class="st0" d="M272,112c0-26.5,21.5-48,48-48s48,21.5,48,48s-21.5,48-48,48S272,138.5,272,112z M224,256c0-17.7,14.3-32,32-32
	h64c17.7,0,32,14.3,32,32v256h32c17.7,0,32,14.3,32,32s-14.3,32-32,32H256c-17.7,0-32-14.3-32-32s14.3-32,32-32h32V288h-32
	C238.3,288,224,273.7,224,256z"/>
</svg>
