<?xml version="1.0" encoding="utf-8"?>
<!-- Generator: Adobe Illustrator 26.1.0, SVG Export Plug-In . SVG Version: 6.00 Build 0)  -->
<svg version="1.1" id="Layer_1" xmlns="http://www.w3.org/2000/svg" xmlns:xlink="http://www.w3.org/1999/xlink" x="0px" y="0px"
	 viewBox="0 0 800 800" style="enable-background:new 0 0 800 800;" xml:space="preserve">
<style type="text/css">
	.st0{fill-rule:evenodd;clip-rule:evenodd;fill:#FFFFFF;}
</style>
<path class="st0" d="M622.4,122.2c-21.2,3.8-49.2,13-90,26.6l-133.3,44.4c-22.5,7.5-37.5,12.5-48.4,17.6
	c-10.4,4.8-14.9,8.7-17.8,12.7s-5.2,9.5-6.5,20.9c-1.4,12-1.4,27.8-1.4,51.5v69.2l350-116.7c0-41.4-0.1-70-3.2-90.8
	c-3-20.8-8.3-28.3-14.1-32.5C651.9,121.1,643.1,118.5,622.4,122.2z M724.7,200c-0.4-18.8-1.3-35.3-3.4-49.4
	c-3.9-26.4-12.5-50-34.3-65.8C665.1,69,640,68.3,613.7,73c-25.3,4.5-56.8,15-95.1,27.8L382,146.3c-20.9,7-38.5,12.8-52.4,19.3
	c-14.7,6.9-27.5,15.4-37.2,28.8c-9.7,13.5-13.7,28.3-15.6,44.5c-0.9,8.3-1.4,17.5-1.6,27.8H275V292c0,0.9,0,1.8,0,2.7v238.6
	c-20.9-15.7-46.9-25-75-25c-69,0-125,56-125,125s56,125,125,125s125-56,125-125V418l350-116.7v165.3c-20.9-15.7-46.9-25-75-25
	c-69,0-125,56-125,125s56,125,125,125s125-56,125-125v-317c0-1.2,0-2.4,0-3.5V200H724.7z M675,566.6c0-41.4-33.6-75-75-75
	s-75,33.6-75,75s33.6,75,75,75S675,608.1,675,566.6z M275,633.3c0-41.4-33.6-75-75-75s-75,33.6-75,75s33.6,75,75,75
	S275,674.7,275,633.3z"/>
</svg>
