<?xml version="1.0" encoding="utf-8"?>
<!-- Generator: Adobe Illustrator 26.1.0, SVG Export Plug-In . SVG Version: 6.00 Build 0)  -->
<svg version="1.1" id="Layer_1" xmlns="http://www.w3.org/2000/svg" xmlns:xlink="http://www.w3.org/1999/xlink" x="0px" y="0px"
	 viewBox="0 0 640 640" style="enable-background:new 0 0 640 640;" xml:space="preserve">
<style type="text/css">
	.st0{fill:#FFFFFF;}
</style>
<path class="st0" d="M505,122.9l12.1,12.1c9.4,9.4,9.4,24.6,0,33.9L488,198.1L441.9,152l29.1-29.1c9.4-9.4,24.6-9.4,33.9,0H505z
	 M273.8,320.2L408,185.9l46.1,46.1L319.8,366.2c-2.9,2.9-6.5,5-10.4,6.1L250.9,389l16.7-58.5c1.1-3.9,3.2-7.5,6.1-10.4L273.8,320.2z
	 M437.1,89L239.8,286.2c-8.7,8.7-15,19.4-18.3,31.1l-28.6,100c-2.4,8.4-0.1,17.4,6.1,23.6c6.2,6.2,15.2,8.5,23.6,6.1l100-28.6
	c11.8-3.4,22.5-9.7,31.1-18.3L551,202.9c28.1-28.1,28.1-73.7,0-101.8L538.9,89C510.8,60.9,465.2,60.9,437.1,89z M152,128
	c-48.6,0-88,39.4-88,88v272c0,48.6,39.4,88,88,88h272c48.6,0,88-39.4,88-88V376c0-13.3-10.7-24-24-24s-24,10.7-24,24v112
	c0,22.1-17.9,40-40,40H152c-22.1,0-40-17.9-40-40V216c0-22.1,17.9-40,40-40h112c13.3,0,24-10.7,24-24s-10.7-24-24-24H152z"/>
</svg>
