<?xml version="1.0" encoding="utf-8"?>
<!-- Generator: Adobe Illustrator 26.1.0, SVG Export Plug-In . SVG Version: 6.00 Build 0)  -->
<svg version="1.1" id="Layer_1" xmlns="http://www.w3.org/2000/svg" xmlns:xlink="http://www.w3.org/1999/xlink" x="0px" y="0px"
	 viewBox="0 0 24 24" style="enable-background:new 0 0 24 24;" xml:space="preserve">
<style type="text/css">
	.st0{fill:#FFFFFE;}
	.st1{fill:#FFFFFF;stroke:#FFFFFF;stroke-width:1.5;stroke-miterlimit:10;}
</style>
<path class="st0" d="M14,6H4C3.5,6,3,6.4,3,7s0.5,1,1,1h10c0.6,0,1-0.4,1-1S14.6,6,14,6z"/>
<path class="st0" d="M4,16h6c0.6,0,1-0.4,1-1s-0.4-1-1-1H4c-0.5,0-1,0.4-1,1S3.5,16,4,16z"/>
<path class="st1" d="M14.5,10.2c-0.2-0.1-0.5-0.1-0.8,0c-0.2,0.1-0.4,0.4-0.4,0.7V18c0,0.3,0.1,0.5,0.4,0.7c0.2,0.1,0.5,0.1,0.8,0
	l6.5-3.6c0.2-0.1,0.4-0.4,0.4-0.7c0-0.3-0.2-0.5-0.4-0.7L14.5,10.2z"/>
<path class="st0" d="M4,12h6c0.6,0,1-0.4,1-1s-0.4-1-1-1H4c-0.5,0-1,0.4-1,1S3.5,12,4,12z"/>
</svg>
