<?xml version="1.0" encoding="utf-8"?>
<!-- Generator: Adobe Illustrator 26.1.0, SVG Export Plug-In . SVG Version: 6.00 Build 0)  -->
<svg version="1.1" id="Layer_1" xmlns="http://www.w3.org/2000/svg" xmlns:xlink="http://www.w3.org/1999/xlink" x="0px" y="0px"
	 viewBox="0 0 640 640" style="enable-background:new 0 0 640 640;" xml:space="preserve">
<style type="text/css">
	.st0{fill:#FFFFFF;}
</style>
<path class="st0" d="M160,224h64v-64h-64V224z M96,144c0-26.5,21.5-48,48-48h96c26.5,0,48,21.5,48,48v96c0,26.5-21.5,48-48,48h-96
	c-26.5,0-48-21.5-48-48V144z M160,480h64v-64h-64V480z M96,400c0-26.5,21.5-48,48-48h96c26.5,0,48,21.5,48,48v96
	c0,26.5-21.5,48-48,48h-96c-26.5,0-48-21.5-48-48V400z M416,160v64h64v-64H416z M400,96h96c26.5,0,48,21.5,48,48v96
	c0,26.5-21.5,48-48,48h-96c-26.5,0-48-21.5-48-48v-96C352,117.5,373.5,96,400,96z M384,416c-17.7,0-32-14.3-32-32s14.3-32,32-32
	s32,14.3,32,32S401.7,416,384,416z M384,480c17.7,0,32,14.3,32,32s-14.3,32-32,32s-32-14.3-32-32S366.3,480,384,480z M480,512
	c0-17.7,14.3-32,32-32s32,14.3,32,32s-14.3,32-32,32S480,529.7,480,512z M512,416c-17.7,0-32-14.3-32-32s14.3-32,32-32
	s32,14.3,32,32S529.7,416,512,416z M480,448c0,17.7-14.3,32-32,32s-32-14.3-32-32s14.3-32,32-32S480,430.3,480,448z"/>
</svg>
