<?xml version="1.0" encoding="utf-8"?>
<!-- Generator: Adobe Illustrator 26.1.0, SVG Export Plug-In . SVG Version: 6.00 Build 0)  -->
<svg version="1.1" id="Layer_1" xmlns="http://www.w3.org/2000/svg" xmlns:xlink="http://www.w3.org/1999/xlink" x="0px" y="0px"
	 viewBox="0 0 24 24" style="enable-background:new 0 0 24 24;" xml:space="preserve">
<style type="text/css">
	.st0{fill:#FFFFFF;}
</style>
<path class="st0" d="M14,6H4C3.5,6,3,6.4,3,7s0.5,1,1,1h10c0.6,0,1-0.4,1-1S14.6,6,14,6z M14,10H4c-0.5,0-1,0.4-1,1s0.5,1,1,1h10
	c0.6,0,1-0.4,1-1S14.6,10,14,10z M4,16h6c0.6,0,1-0.4,1-1s-0.4-1-1-1H4c-0.5,0-1,0.4-1,1S3.5,16,4,16z M19,6c-1.1,0-2,0.9-2,2v6.2
	c-0.3-0.1-0.6-0.2-1-0.2c-1.8,0-3.3,1.6-2.9,3.5c0.2,1.2,1.2,2.2,2.4,2.4c1.9,0.3,3.5-1.1,3.5-3V8h2c0.5,0,1-0.4,1-1s-0.5-1-1-1H19z
	 M16,18.6c-0.9,0-1.6-0.7-1.6-1.6s0.7-1.6,1.6-1.6c0.9,0,1.6,0.7,1.6,1.6S16.9,18.6,16,18.6z"/>
</svg>
