<?xml version="1.0" encoding="utf-8"?>
<!-- Generator: Adobe Illustrator 26.1.0, SVG Export Plug-In . SVG Version: 6.00 Build 0)  -->
<svg version="1.1" id="Layer_1" xmlns="http://www.w3.org/2000/svg" xmlns:xlink="http://www.w3.org/1999/xlink" x="0px" y="0px"
	 viewBox="0 0 640 640" style="enable-background:new 0 0 640 640;" xml:space="preserve">
<style type="text/css">
	.st0{fill:#FFFFFF;}
</style>
<path class="st0" d="M558.8,79c12.7-3.7,20-17.1,16.3-29.8c-3.7-12.7-17.1-20-29.8-16.2L115.8,158.9c-9.4,2.7-17.9,7.2-25.2,13.1
	C74.5,183.7,64,202.6,64,224v256c0,35.3,28.7,64,64,64h384c35.3,0,64-28.7,64-64V224c0-35.3-28.7-64-64-64H282.5L558.8,79z M432,272
	c44.2,0,80,35.8,80,80s-35.8,80-80,80s-80-35.8-80-80S387.8,272,432,272z M128,312c0-13.3,10.7-24,24-24h112c13.3,0,24,10.7,24,24
	s-10.7,24-24,24H152C138.7,336,128,325.3,128,312z M128,408c0-13.3,10.7-24,24-24h112c13.3,0,24,10.7,24,24s-10.7,24-24,24H152
	C138.7,432,128,421.3,128,408z"/>
</svg>
