<?xml version="1.0" encoding="utf-8"?>
<!-- Generator: Adobe Illustrator 26.1.0, SVG Export Plug-In . SVG Version: 6.00 Build 0)  -->
<svg version="1.1" id="Layer_1" xmlns="http://www.w3.org/2000/svg" xmlns:xlink="http://www.w3.org/1999/xlink" x="0px" y="0px"
	 viewBox="0 0 640 640" style="enable-background:new 0 0 640 640;" xml:space="preserve">
<style type="text/css">
	.st0{fill:#FFFFFF;}
</style>
<path class="st0" d="M128,176c-8.8,0-16,7.2-16,16v256c0,8.8,7.2,16,16,16h384c8.8,0,16-7.2,16-16V192c0-8.8-7.2-16-16-16H128z
	 M64,192c0-35.3,28.7-64,64-64h384c35.3,0,64,28.7,64,64v256c0,35.3-28.7,64-64,64H128c-35.3,0-64-28.7-64-64V192z M224,384
	c0,17.7-14.3,32-32,32s-32-14.3-32-32s14.3-32,32-32S224,366.3,224,384z M192,288c-17.7,0-32-14.3-32-32s14.3-32,32-32
	s32,14.3,32,32S209.7,288,192,288z M296,232h160c13.3,0,24,10.7,24,24c0,13.3-10.7,24-24,24H296c-13.3,0-24-10.7-24-24
	C272,242.7,282.7,232,296,232z M296,360h160c13.3,0,24,10.7,24,24s-10.7,24-24,24H296c-13.3,0-24-10.7-24-24S282.7,360,296,360z"/>
</svg>
