<?xml version="1.0" encoding="utf-8"?>
<!-- Generator: Adobe Illustrator 26.1.0, SVG Export Plug-In . SVG Version: 6.00 Build 0)  -->
<svg version="1.1" id="Layer_1" xmlns="http://www.w3.org/2000/svg" xmlns:xlink="http://www.w3.org/1999/xlink" x="0px" y="0px"
	 viewBox="0 0 640 640" style="enable-background:new 0 0 640 640;" xml:space="preserve">
<style type="text/css">
	.st0{fill:#FFFFFF;}
</style>
<path class="st0" d="M535,182.6c12.5-12.5,12.5-32.8,0-45.3l-64-64c-9.2-9.2-22.9-11.9-34.9-6.9S416.4,83.1,416.4,96v32h-160
	c-106,0-192,86-192,192c0,17.7,14.3,32,32,32s32-14.3,32-32c0-70.7,57.3-128,128-128h160v32c0,12.9,7.8,24.6,19.8,29.6
	s25.7,2.2,34.9-6.9l64-64L535,182.6z M105.8,457.4c-12.5,12.5-12.5,32.8,0,45.3l64,64c9.2,9.2,22.9,11.9,34.9,6.9
	s19.7-16.7,19.7-29.6v-32h160c106,0,192-86,192-192c0-17.7-14.3-32-32-32s-32,14.3-32,32c0,70.7-57.3,128-128,128h-160v-32
	c0-12.9-7.8-24.6-19.8-29.6s-25.7-2.2-34.9,6.9l-64,64L105.8,457.4z"/>
<g>
	<path class="st0" d="M323.3,220.9c18.8,0,26.4,7.7,26.4,24.1v168.5c0,4.3-2.3,6.3-6.5,6.3h-29.8c-4.3,0-6.3-2-6.3-6.3V266
		c0-4.3-2-6-6-6h-15.9c-4,0-6.3-2-6.3-6.3v-26.7c0-4.3,2.3-6.3,6.3-6.3H323.3z"/>
</g>
</svg>
