<?xml version="1.0" encoding="utf-8"?>
<!-- Generator: Adobe Illustrator 26.1.0, SVG Export Plug-In . SVG Version: 6.00 Build 0)  -->
<svg version="1.1" id="Layer_1" xmlns="http://www.w3.org/2000/svg" xmlns:xlink="http://www.w3.org/1999/xlink" x="0px" y="0px"
	 viewBox="0 0 640 640" style="enable-background:new 0 0 640 640;" xml:space="preserve">
<rect x="85" y="85" width="67.1" height="67.1"/>
<rect x="17.9" y="152.1" width="67.1" height="201.4"/>
<rect x="353.6" y="353.6" width="67.1" height="67.1"/>
<rect x="85" y="353.6" width="67.1" height="67.1"/>
<rect x="219.3" y="353.6" transform="matrix(6.123234e-17 -1 1 6.123234e-17 -201.4233 707.1411)" width="67.1" height="201.4"/>
<rect x="219.3" y="-49.3" transform="matrix(6.123234e-17 -1 1 6.123234e-17 201.4233 304.2945)" width="67.1" height="201.4"/>
<rect x="353.6" y="85" transform="matrix(-1 -4.489177e-11 4.489177e-11 -1 774.2822 237.1534)" width="67.1" height="67.1"/>
<rect x="420.7" y="152.1" transform="matrix(-1 -4.489177e-11 4.489177e-11 -1 908.5644 505.7178)" width="67.1" height="201.4"/>
<rect x="420.7" y="420.7" width="67.1" height="67.1"/>
<rect x="487.9" y="487.9" width="67.1" height="67.1"/>
<rect x="555" y="555" width="67.1" height="67.1"/>
</svg>
