<?xml version="1.0" encoding="utf-8"?>
<!-- Generator: Adobe Illustrator 26.1.0, SVG Export Plug-In . SVG Version: 6.00 Build 0)  -->
<svg version="1.1" id="Layer_1" xmlns="http://www.w3.org/2000/svg" xmlns:xlink="http://www.w3.org/1999/xlink" x="0px" y="0px"
	 viewBox="0 0 800 800" style="enable-background:new 0 0 800 800;" xml:space="preserve">
<style type="text/css">
	.st0{fill-rule:evenodd;clip-rule:evenodd;fill:#FFFFFF;}
</style>
<path class="st0" d="M400,275c-69,0-125,56-125,125s56,125,125,125s125-56,125-125S469,275,400,275z M325,400c0-41.4,33.6-75,75-75
	s75,33.6,75,75s-33.6,75-75,75S325,441.4,325,400z"/>
<path class="st0" d="M399.2,41.7c-14.8,0-27.2,0-37.3,0.7c-10.6,0.7-20.6,2.3-30.2,6.3c-22.5,9.3-40.3,27.1-49.6,49.6
	c-4.8,11.7-6.2,24-6.7,37.4c-0.4,10.8-5.8,19.8-13.9,24.4c-8,4.6-18.5,4.8-28-0.2c-11.9-6.3-23.2-11.3-35.7-12.9
	c-24.1-3.2-48.5,3.4-67.8,18.2c-8.3,6.4-14.7,14.2-20.6,23c-5.7,8.4-11.9,19.2-19.3,32l-0.8,1.5c-7.4,12.8-13.6,23.5-18.1,32.7
	c-4.7,9.5-8.3,18.9-9.7,29.3c-3.2,24.1,3.4,48.5,18.2,67.8c7.7,10,17.7,17.3,29.1,24.5c9.1,5.7,14.2,14.9,14.2,24.2
	c0,9.3-5.1,18.5-14.2,24.2c-11.3,7.1-21.4,14.4-29.1,24.5c-14.8,19.3-21.3,43.7-18.2,67.8c1.4,10.4,5,19.8,9.7,29.3
	c4.5,9.1,10.7,19.9,18.1,32.7l0.8,1.5c7.4,12.8,13.6,23.5,19.3,32c5.9,8.8,12.2,16.7,20.6,23c19.3,14.8,43.7,21.3,67.8,18.2
	c12.5-1.7,23.9-6.7,35.7-12.9c9.5-5,20-4.8,28-0.2c8,4.6,13.5,13.6,13.9,24.4c0.5,13.4,1.8,25.7,6.7,37.4
	c9.3,22.5,27.1,40.3,49.6,49.6c9.7,4,19.7,5.6,30.2,6.3c10.2,0.7,22.5,0.7,37.3,0.7h1.7c14.8,0,27.2,0,37.3-0.7
	c10.6-0.7,20.6-2.3,30.2-6.3c22.5-9.3,40.3-27.2,49.6-49.6c4.8-11.7,6.2-24,6.7-37.4c0.4-10.8,5.8-19.8,13.9-24.4
	c8-4.6,18.5-4.8,28,0.2c11.8,6.3,23.2,11.3,35.7,12.9c24.1,3.2,48.5-3.4,67.8-18.2c8.3-6.4,14.7-14.2,20.6-23
	c5.7-8.4,11.9-19.2,19.3-32l0.8-1.5c7.4-12.8,13.6-23.5,18.1-32.7c4.7-9.5,8.3-18.9,9.7-29.3c3.2-24.1-3.4-48.5-18.2-67.8
	c-7.7-10-17.7-17.3-29.1-24.5c-9.1-5.7-14.2-14.9-14.2-24.2c0-9.3,5.1-18.5,14.2-24.2c11.4-7.1,21.4-14.4,29.1-24.5
	c14.8-19.3,21.3-43.7,18.2-67.8c-1.4-10.4-5-19.8-9.7-29.3c-4.5-9.1-10.7-19.8-18.1-32.7l-0.8-1.5c-7.4-12.8-13.6-23.5-19.3-32
	c-5.9-8.8-12.2-16.7-20.6-23c-19.3-14.8-43.7-21.3-67.8-18.2c-12.5,1.7-23.9,6.7-35.7,12.9c-9.5,5-20,4.8-28,0.2
	s-13.5-13.6-13.9-24.4c-0.5-13.4-1.8-25.7-6.7-37.4c-9.3-22.5-27.1-40.3-49.6-49.6c-9.7-4-19.7-5.6-30.2-6.3
	c-10.2-0.7-22.5-0.7-37.3-0.7L399.2,41.7L399.2,41.7z M350.7,94.8c2.6-1.1,6.5-2,14.5-2.6c8.2-0.6,18.9-0.6,34.8-0.6
	s26.5,0,34.8,0.6c8,0.5,11.9,1.5,14.5,2.6c10.2,4.2,18.3,12.3,22.6,22.5c1.3,3.2,2.4,8.2,2.9,20.1c1,26.4,14.6,51.8,38.8,65.8
	c24.2,14,53,13.1,76.4,0.7c10.5-5.6,15.4-7.1,18.9-7.6c11-1.4,22,1.5,30.8,8.3c2.2,1.7,5,4.6,9.5,11.3c4.6,6.9,10,16.1,17.9,29.8
	c7.9,13.7,13.3,23,16.9,30.4c3.5,7.2,4.6,11.1,5,13.9c1.4,11-1.5,22-8.3,30.8c-2.1,2.8-5.9,6.2-16,12.6
	c-22.4,14.1-37.6,38.6-37.6,66.5s15.2,52.5,37.6,66.5c10.1,6.3,13.9,9.8,16,12.6c6.7,8.8,9.7,19.8,8.3,30.8c-0.4,2.8-1.5,6.6-5,13.9
	c-3.6,7.4-9,16.7-16.9,30.4s-13.3,23-17.9,29.8c-4.5,6.7-7.3,9.6-9.5,11.3c-8.8,6.7-19.8,9.7-30.8,8.3c-3.5-0.5-8.4-2-18.9-7.6
	c-23.4-12.4-52.2-13.3-76.4,0.7s-37.8,39.4-38.8,65.8c-0.4,11.9-1.6,16.9-2.9,20.1c-4.2,10.2-12.3,18.3-22.6,22.5
	c-2.6,1.1-6.5,2-14.5,2.6c-8.2,0.6-18.9,0.6-34.8,0.6s-26.5,0-34.8-0.6c-8-0.5-11.9-1.5-14.5-2.6c-10.2-4.2-18.3-12.3-22.5-22.5
	c-1.3-3.2-2.4-8.2-2.9-20.1c-1-26.4-14.6-51.8-38.8-65.8c-24.2-14-53-13.1-76.4-0.7c-10.5,5.6-15.4,7.1-18.9,7.6
	c-11,1.4-22-1.5-30.8-8.3c-2.2-1.7-5-4.6-9.5-11.3c-4.6-6.9-9.9-16.1-17.9-29.8c-7.9-13.7-13.3-23-16.9-30.4
	c-3.5-7.2-4.6-11.1-5-13.9c-1.4-11,1.5-22,8.3-30.8c2.1-2.8,5.9-6.2,16-12.6c22.4-14.1,37.6-38.6,37.6-66.5
	c0-28-15.2-52.5-37.6-66.5c-10.1-6.3-13.9-9.8-16-12.6c-6.7-8.8-9.7-19.8-8.3-30.8c0.4-2.8,1.5-6.6,5-13.9c3.6-7.4,9-16.7,16.9-30.4
	c7.9-13.7,13.3-23,17.9-29.8c4.5-6.7,7.3-9.6,9.5-11.3c8.8-6.7,19.8-9.7,30.8-8.3c3.5,0.5,8.4,2,18.9,7.6
	c23.4,12.4,52.2,13.3,76.4-0.7c24.2-14,37.8-39.4,38.8-65.8c0.4-11.9,1.6-16.9,2.9-20.1C332.4,107.2,340.5,99.1,350.7,94.8z"/>
</svg>
