<?xml version="1.0" encoding="utf-8"?>
<!-- Generator: Adobe Illustrator 26.1.0, SVG Export Plug-In . SVG Version: 6.00 Build 0)  -->
<svg version="1.1" id="Layer_1" xmlns="http://www.w3.org/2000/svg" xmlns:xlink="http://www.w3.org/1999/xlink" x="0px" y="0px"
	 viewBox="0 0 640 640" style="enable-background:new 0 0 640 640;" xml:space="preserve">
<style type="text/css">
	.st0{fill:#FFFFFF;}
</style>
<path class="st0" d="M320,64c4.6,0,9.2,1,13.4,2.9l188.4,79.9c22,9.3,38.4,31,38.3,57.2c-0.5,99.2-41.3,280.7-213.6,363.2
	c-16.7,8-36.1,8-52.8,0C121.3,484.7,80.6,303.2,80.1,204c-0.1-26.2,16.3-47.9,38.3-57.2l188.3-79.9C310.9,65,315.4,64,320,64z
	 M320,130.8v378.1c138-66.8,175.1-214.8,176-303.4L320,130.8L320,130.8L320,130.8z"/>
</svg>
