<?xml version="1.0" encoding="utf-8"?>
<!-- Generator: Adobe Illustrator 26.1.0, SVG Export Plug-In . SVG Version: 6.00 Build 0)  -->
<svg version="1.1" id="Layer_1" xmlns="http://www.w3.org/2000/svg" xmlns:xlink="http://www.w3.org/1999/xlink" x="0px" y="0px"
	 viewBox="0 0 640 640" style="enable-background:new 0 0 640 640;" xml:space="preserve">
<style type="text/css">
	.st0{fill:#FFFFFF;}
</style>
<path class="st0" d="M467.8,98.4c12-5,25.7-2.2,34.9,6.9l64,64c6,6,9.4,14.1,9.4,22.6s-3.4,16.6-9.4,22.6l-64,64
	c-9.2,9.2-22.9,11.9-34.9,6.9S448,268.9,448,256v-32h-32c-10.1,0-19.6,4.7-25.6,12.8L358,280l-40-53.3l21.2-28.3
	c18.1-24.2,46.6-38.4,76.8-38.4h32v-32C448,115.1,455.8,103.4,467.8,98.4z M218,360l40,53.3l-21.2,28.3
	C218.7,465.8,190.2,480,160,480H96c-17.7,0-32-14.3-32-32s14.3-32,32-32h64c10.1,0,19.6-4.7,25.6-12.8L218,360z M502.6,534.6
	c-9.2,9.2-22.9,11.9-34.9,6.9S448,524.9,448,512v-32h-32c-30.2,0-58.7-14.2-76.8-38.4L185.6,236.8c-6-8.1-15.5-12.8-25.6-12.8H96
	c-17.7,0-32-14.3-32-32s14.3-32,32-32h64c30.2,0,58.7,14.2,76.8,38.4l153.6,204.8c6,8.1,15.5,12.8,25.6,12.8h32v-32
	c0-12.9,7.8-24.6,19.8-29.6s25.7-2.2,34.9,6.9l64,64c6,6,9.4,14.1,9.4,22.6s-3.4,16.6-9.4,22.6l-64,64L502.6,534.6z"/>
</svg>
