<?xml version="1.0" encoding="utf-8"?>
<!-- Generator: Adobe Illustrator 26.1.0, SVG Export Plug-In . SVG Version: 6.00 Build 0)  -->
<svg version="1.1" id="Layer_1" xmlns="http://www.w3.org/2000/svg" xmlns:xlink="http://www.w3.org/1999/xlink" x="0px" y="0px"
	 viewBox="0 0 24 24" style="enable-background:new 0 0 24 24;" xml:space="preserve">
<style type="text/css">
	.st0{fill:#FFFFFF;}
</style>
<path class="st0" d="M12,5v8.6c-0.9-0.5-2.1-0.8-3.3-0.3c-1.3,0.5-2.4,1.7-2.6,3.1c-0.5,2.6,1.8,5,4.6,4.6c2-0.3,3.3-2.1,3.3-4.1V7
	h2c1.1,0,2-0.9,2-2s-0.9-2-2-2h-2C12.9,3,12,3.9,12,5z M10,19.5c-1.4,0-2.5-1.1-2.5-2.5s1.1-2.5,2.5-2.5s2.5,1.1,2.5,2.5
	S11.4,19.5,10,19.5z"/>
</svg>
