<?xml version="1.0" encoding="utf-8"?>
<!-- Generator: Adobe Illustrator 26.1.0, SVG Export Plug-In . SVG Version: 6.00 Build 0)  -->
<svg version="1.1" id="Layer_1" xmlns="http://www.w3.org/2000/svg" xmlns:xlink="http://www.w3.org/1999/xlink" x="0px" y="0px"
	 viewBox="0 0 640 640" style="enable-background:new 0 0 640 640;" xml:space="preserve">
<style type="text/css">
	.st0{fill:#FFFFFF;}
</style>
<path class="st0" d="M262.2,48c-13.3,0-25.3,8.3-30,20.8L216,112h-96c-13.3,0-24,10.7-24,24s10.7,24,24,24h400c13.3,0,24-10.7,24-24
	s-10.7-24-24-24h-96l-16.2-43.2c-4.7-12.5-16.6-20.8-30-20.8H262.2z M128,208v304c0,35.3,28.7,64,64,64h256c35.3,0,64-28.7,64-64
	V208h-48v304c0,8.8-7.2,16-16,16H192c-8.8,0-16-7.2-16-16V208H128z M288,280c0-13.3-10.7-24-24-24c-13.3,0-24,10.7-24,24v176
	c0,13.3,10.7,24,24,24c13.3,0,24-10.7,24-24V280z M400,280c0-13.3-10.7-24-24-24s-24,10.7-24,24v176c0,13.3,10.7,24,24,24
	s24-10.7,24-24V280z"/>
</svg>
