<?xml version="1.0" encoding="utf-8"?>
<!-- Generator: Adobe Illustrator 26.1.0, SVG Export Plug-In . SVG Version: 6.00 Build 0)  -->
<svg version="1.1" id="Layer_1" xmlns="http://www.w3.org/2000/svg" xmlns:xlink="http://www.w3.org/1999/xlink" x="0px" y="0px"
	 viewBox="0 0 640 640" style="enable-background:new 0 0 640 640;" xml:space="preserve">
<style type="text/css">
	.st0{fill:#FFFFFF;}
</style>
<path class="st0" d="M352,173.3V384c0,17.7-14.3,32-32,32s-32-14.3-32-32V173.3l-41.4,41.4c-12.5,12.5-32.8,12.5-45.3,0
	s-12.5-32.8,0-45.3l96-96c12.5-12.5,32.8-12.5,45.3,0l96,96c12.5,12.5,12.5,32.8,0,45.3s-32.8,12.5-45.3,0L352,173.3z M320,464
	c44.2,0,80-35.8,80-80h80c35.3,0,64,28.7,64,64v32c0,35.3-28.7,64-64,64H160c-35.3,0-64-28.7-64-64v-32c0-35.3,28.7-64,64-64h80
	C240,428.2,275.8,464,320,464z M464,488c13.3,0,24-10.7,24-24s-10.7-24-24-24s-24,10.7-24,24S450.7,488,464,488z"/>
</svg>
