<?xml version="1.0" encoding="utf-8"?>
<!-- Generator: Adobe Illustrator 26.1.0, SVG Export Plug-In . SVG Version: 6.00 Build 0)  -->
<svg version="1.1" id="Layer_1" xmlns="http://www.w3.org/2000/svg" xmlns:xlink="http://www.w3.org/1999/xlink" x="0px" y="0px"
	 viewBox="0 0 640 640" style="enable-background:new 0 0 640 640;" xml:space="preserve">
<style type="text/css">
	.st0{fill:#FFFFFF;}
</style>
<circle class="st0" cx="320" cy="192" r="80"/>
<circle class="st0" cx="320" cy="192" r="128"/>
<path class="st0" d="M144,544c0-70.7,57.3-128,128-128h96c70.7,0,128,57.3,128,128v8c0,13.3,10.7,24,24,24s24-10.7,24-24v-8
	c0-97.2-78.8-176-176-176h-96c-97.2,0-176,78.8-176,176v8c0,13.3,10.7,24,24,24s24-10.7,24-24V544z"/>
<polygon class="st0" points="120,576 519.8,576 519.8,508 472.3,440 432.9,409 326.3,401.4 231.5,407.9 162,443.8 120,490.3 "/>
</svg>
