<?xml version="1.0" encoding="utf-8"?>
<!-- Generator: Adobe Illustrator 26.1.0, SVG Export Plug-In . SVG Version: 6.00 Build 0)  -->
<svg version="1.1" id="Layer_1" xmlns="http://www.w3.org/2000/svg" xmlns:xlink="http://www.w3.org/1999/xlink" x="0px" y="0px"
	 viewBox="0 0 640 640" style="enable-background:new 0 0 640 640;" xml:space="preserve">
<style type="text/css">
	.st0{fill:#FFFFFF;}
</style>
<path class="st0" d="M240,192c0-44.2,35.8-80,80-80s80,35.8,80,80s-35.8,80-80,80S240,236.2,240,192z M448,192
	c0-70.7-57.3-128-128-128s-128,57.3-128,128s57.3,128,128,128S448,262.7,448,192z M144,544c0-70.7,57.3-128,128-128h96
	c70.7,0,128,57.3,128,128v8c0,13.3,10.7,24,24,24s24-10.7,24-24v-8c0-97.2-78.8-176-176-176h-96c-97.2,0-176,78.8-176,176v8
	c0,13.3,10.7,24,24,24s24-10.7,24-24V544z"/>
</svg>
