<?xml version="1.0" encoding="utf-8"?>
<!-- Generator: Adobe Illustrator 26.1.0, SVG Export Plug-In . SVG Version: 6.00 Build 0)  -->
<svg version="1.1" id="Layer_1" xmlns="http://www.w3.org/2000/svg" xmlns:xlink="http://www.w3.org/1999/xlink" x="0px" y="0px"
	 viewBox="0 0 800 800" style="enable-background:new 0 0 800 800;" xml:space="preserve">
<style type="text/css">
	.st0{fill:#FEFEFE;}
	.st1{display:none;fill:#00A651;}
</style>
<g>
	<g>
		<path class="st0" d="M400,0C178.9,0,0,178.9,0,400s178.9,400,400,400s400-178.9,400-400S621.1,0,400,0z M400,747.8
			c-191.8,0-347.8-156-347.8-347.8S208.2,52.2,400,52.2s347.8,156,347.8,347.8S591.8,747.8,400,747.8z"/>
	</g>
</g>
<path class="st0" d="M400,365.2c-19.2,0-34.8,15.6-34.8,34.8s15.6,34.8,34.8,34.8s34.8-15.6,34.8-34.8
	C434.8,380.8,419.2,365.2,400,365.2z M502.9,400c0,56.8-46.1,102.9-102.9,102.9S297.1,456.8,297.1,400S343.2,297.1,400,297.1
	S502.9,343.2,502.9,400z"/>
<circle class="st1" cx="400" cy="400" r="243.3"/>
<g>
	<g>
		<path class="st0" d="M589.8,210.1c-47.1-48.3-109.6-74.9-176.1-74.9c-12.1,0-22,10.1-22,22.6c0,12.4,9.9,22.6,22,22.6
			c54.7,0,106.2,21.9,145,61.7c38.8,39.8,60.2,92.6,60.2,148.7c0,12.4,9.9,22.6,22,22.6c12.1,0,22-10.1,22-22.6
			C662.9,322.6,637,258.4,589.8,210.1z"/>
	</g>
</g>
</svg>
