<?xml version="1.0" encoding="utf-8"?>
<!-- Generator: Adobe Illustrator 26.1.0, SVG Export Plug-In . SVG Version: 6.00 Build 0)  -->
<svg version="1.1" id="Layer_1" xmlns="http://www.w3.org/2000/svg" xmlns:xlink="http://www.w3.org/1999/xlink" x="0px" y="0px"
	 viewBox="0 0 640 640" style="enable-background:new 0 0 640 640;" xml:space="preserve">
<style type="text/css">
	.st0{fill:#FFFFFF;}
</style>
<path class="st0" d="M80,416h48l134.1,119.2c6.4,5.7,14.6,8.8,23.1,8.8c19.2,0,34.8-15.6,34.8-34.8V130.8
	c0-19.2-15.6-34.8-34.8-34.8c-8.5,0-16.7,3.1-23.1,8.8L128,224H80c-26.5,0-48,21.5-48,48v96C32,394.5,53.5,416,80,416z M399,239
	c-9.4,9.4-9.4,24.6,0,33.9l47,47l-47,47c-9.4,9.4-9.4,24.6,0,33.9c9.4,9.3,24.6,9.4,33.9,0l47-47l47,47c9.4,9.4,24.6,9.4,33.9,0
	c9.3-9.4,9.4-24.6,0-33.9l-47-47l47-47c9.4-9.4,9.4-24.6,0-33.9c-9.4-9.3-24.6-9.4-33.9,0l-47,47l-47-47
	C423.5,229.6,408.3,229.6,399,239z"/>
</svg>
