<?xml version="1.0" encoding="utf-8"?>
<!-- Generator: Adobe Illustrator 26.1.0, SVG Export Plug-In . SVG Version: 6.00 Build 0)  -->
<svg version="1.1" id="Layer_1" xmlns="http://www.w3.org/2000/svg" xmlns:xlink="http://www.w3.org/1999/xlink" x="0px" y="0px"
	 viewBox="0 0 640 640" style="enable-background:new 0 0 640 640;" xml:space="preserve">
<style type="text/css">
	.st0{fill:#FFFFFF;}
</style>
<path class="st0" d="M517.6,96.5c-10.3-8.4-25.4-6.8-33.8,3.5s-6.8,25.4,3.5,33.8c54.2,44,88.7,111,88.7,186.2
	s-34.5,142.2-88.7,186.3c-10.3,8.4-11.8,23.5-3.5,33.8s23.5,11.8,33.8,3.5C582.5,490.7,624,410.2,624,320S582.5,149.2,517.6,96.5z
	 M457.1,171c-10.3-8.4-25.4-6.8-33.8,3.5s-6.8,25.4,3.5,33.8C459.3,234.7,480,274.9,480,320s-20.7,85.3-53.2,111.8
	c-10.3,8.4-11.8,23.5-3.5,33.8s23.5,11.8,33.8,3.5c43.2-35.2,70.9-88.9,70.9-149S500.3,206.3,457.1,171L457.1,171z M396.6,245.5
	c-10.3-8.4-25.4-6.8-33.8,3.5c-8.4,10.3-6.8,25.4,3.5,33.8C377.1,291.6,384,305,384,320s-6.9,28.4-17.7,37.3
	c-10.3,8.4-11.8,23.5-3.5,33.8s23.5,11.8,33.8,3.5c21.5-17.7,35.4-44.5,35.4-74.6S418.1,263.1,396.6,245.5z M64,416h48l134.1,119.2
	c6.4,5.7,14.6,8.8,23.1,8.8c19.2,0,34.8-15.6,34.8-34.8V130.8c0-19.2-15.6-34.8-34.8-34.8c-8.5,0-16.7,3.1-23.1,8.8L112,224H64
	c-26.5,0-48,21.5-48,48v96C16,394.5,37.5,416,64,416z"/>
</svg>
